<!--?xml version="1.0" standalone="no"?-->
              <svg id="sw-js-blob-svg" viewBox="0 0 100 100" xmlns="http://www.w3.org/2000/svg" version="1.1">
                    <defs> 
                        <linearGradient id="sw-gradient" x1="0" x2="1" y1="1" y2="0">
                            <stop id="stop1" stop-color="rgba(240.272, 0, 171.429, 1)" offset="0%"></stop>
                            <stop id="stop2" stop-color="rgba(255, 255, 255, 1)" offset="100%"></stop>
                        </linearGradient>
                    </defs>
                <path fill="url(#sw-gradient)" d="M22.4,-27.7C28.5,-21.6,32.5,-14,34.7,-5.6C36.8,2.9,37,12.2,33.3,19.8C29.6,27.5,22,33.5,13.7,35.6C5.4,37.7,-3.5,36,-10.6,32.1C-17.6,28.3,-22.7,22.2,-27.1,15.3C-31.4,8.5,-35,0.8,-33.9,-6.1C-32.8,-12.9,-27,-19.1,-20.5,-25.1C-14.1,-31.1,-7,-37.1,0.6,-37.7C8.2,-38.4,16.3,-33.8,22.4,-27.7Z" width="100%" height="100%" transform="translate(50 50)" stroke-width="0" style="transition: all 0.3s ease 0s;"></path>
              </svg>